<svg version="1.1" id="Layer_1" xmlns="http://www.w3.org/2000/svg" xmlns:xlink="http://www.w3.org/1999/xlink" x="0px" y="0px"
	 width="100%" viewBox="0 0 500 500" enable-background="new 0 0 500 500" xml:space="preserve">
<path fill="#FD5589" opacity="1.000000" stroke="none" 
	d="
M501.000000,197.000000 
	C501.000000,207.687561 501.000000,218.375122 500.665955,229.606842 
	C498.899841,231.255447 497.324738,232.216797 496.056091,233.484772 
	C408.465668,321.030304 320.896393,408.596985 233.362976,496.199493 
	C232.002853,497.560730 231.110596,499.389435 230.000000,501.000000 
	C219.312439,501.000000 208.624878,501.000000 197.544205,500.666016 
	C198.256531,498.898956 199.218811,497.322845 200.487793,496.053253 
	C299.031830,397.464874 397.596863,298.897461 496.197235,200.365402 
	C497.559143,199.004425 499.388702,198.111435 501.000000,197.000000 
z"/>
<path fill="#7217EC" opacity="1.000000" stroke="none" 
	d="
M322.000000,1.000001 
	C331.020905,1.000000 340.041779,1.000000 349.455902,1.334050 
	C348.743256,3.101680 347.780640,4.678468 346.511139,5.948484 
	C232.967804,119.535683 119.403511,233.101944 5.804502,346.633453 
	C4.442188,347.994965 2.611862,348.888184 0.999997,350.000000 
	C1.000000,340.979095 1.000000,331.958221 1.334006,322.393097 
	C3.101187,320.743317 4.677509,319.780975 5.947181,318.511810 
	C110.201843,214.301376 214.435516,110.069893 318.634094,5.803353 
	C319.995270,4.441281 320.888397,2.611482 322.000000,1.000001 
z"/>
<path fill="#7D1DE6" opacity="1.000000" stroke="none" 
	d="
M0.999997,350.468628 
	C2.611862,348.888184 4.442188,347.994965 5.804502,346.633453 
	C119.403511,233.101944 232.967804,119.535683 346.511139,5.948484 
	C347.780640,4.678468 348.743256,3.101680 349.924561,1.334050 
	C358.354218,1.000000 366.708466,1.000000 375.455750,1.333989 
	C374.273865,3.570583 372.841766,5.615936 371.103485,7.355262 
	C292.856812,85.649391 214.573929,163.907364 136.361588,242.235748 
	C134.202179,244.398361 132.766434,247.283539 130.534607,249.897324 
	C126.475990,249.962875 122.876015,249.962875 118.800613,249.962875 
	C118.800613,254.069534 118.800613,257.530518 118.468903,261.069763 
	C115.888817,262.801392 113.384323,264.197845 111.430084,266.146210 
	C76.426178,301.045288 41.498753,336.021088 6.505532,370.930878 
	C4.907588,372.525055 2.845772,373.654266 1.000003,375.000000 
	C1.000000,366.979095 1.000000,358.958191 0.999997,350.468628 
z"/>
<path fill="#FE5D8F" opacity="1.000000" stroke="none" 
	d="
M501.000000,196.531372 
	C499.388702,198.111435 497.559143,199.004425 496.197235,200.365402 
	C397.596863,298.897461 299.031830,397.464874 200.487793,496.053253 
	C199.218811,497.322845 198.256531,498.898956 197.075546,500.666016 
	C189.312424,501.000000 181.624832,501.000000 173.544128,500.665985 
	C174.609940,498.545410 175.927124,496.617279 177.548691,494.993103 
	C211.791626,460.695007 246.068802,426.431152 280.339325,392.160614 
	C351.589081,320.910950 422.829224,249.651642 494.140839,178.463943 
	C496.030029,176.578049 498.696167,175.470520 501.000000,174.000000 
	C501.000000,181.354248 501.000000,188.708496 501.000000,196.531372 
z"/>
<path fill="#FB4C82" opacity="1.000000" stroke="none" 
	d="
M230.468658,501.000000 
	C231.110596,499.389435 232.002853,497.560730 233.362976,496.199493 
	C320.896393,408.596985 408.465668,321.030304 496.056091,233.484772 
	C497.324738,232.216797 498.899841,231.255447 500.665955,230.075500 
	C501.000000,239.354233 501.000000,248.708450 500.652100,258.601074 
	C495.990204,262.911438 491.510681,266.512604 487.400177,270.494629 
	C480.876953,276.813965 474.642609,283.430237 468.207764,289.842346 
	C461.415619,296.610474 454.506256,303.260864 447.695099,310.010071 
	C440.776764,316.865509 433.910156,323.773224 427.031250,330.668396 
	C420.489929,337.225250 413.947113,343.780762 407.432526,350.364166 
	C401.042450,356.821686 394.742004,363.368774 388.301422,369.775208 
	C381.620880,376.420319 374.739532,382.864319 368.093781,389.543335 
	C361.685394,395.983734 355.578735,402.725677 349.136261,409.130646 
	C339.760925,418.451294 330.097717,427.483032 320.753479,436.833984 
	C311.527191,446.066864 302.655060,455.653748 293.424438,464.882172 
	C284.193756,474.110535 274.616119,482.992188 265.402039,492.236633 
	C262.877991,494.768982 261.113220,498.058136 259.000000,501.000000 
	C249.645767,501.000000 240.291550,501.000000 230.468658,501.000000 
z"/>
<path fill="#6415D8" opacity="1.000000" stroke="none" 
	d="
M1.000000,301.000000 
	C1.000000,293.645752 1.000000,286.291504 1.334017,278.393097 
	C3.101602,276.742950 4.678205,275.780060 5.948352,274.510559 
	C95.535385,184.968353 185.101257,95.404976 274.631378,5.805863 
	C275.993378,4.442824 276.887512,2.612342 278.000000,1.000001 
	C285.354248,1.000000 292.708496,1.000000 300.455872,1.334033 
	C299.744293,3.100452 298.782745,4.675940 297.514465,5.944836 
	C200.302551,103.201195 103.069557,200.436493 5.801202,297.636414 
	C4.439839,298.996796 2.610772,299.889191 1.000000,301.000000 
z"/>
<path fill="#B339C3" opacity="1.000000" stroke="none" 
	d="
M475.000000,1.000002 
	C482.833344,1.000000 490.678772,1.252105 498.494080,0.876583 
	C501.643768,0.725240 500.951935,2.345620 500.654297,4.568770 
	C498.275391,6.522176 495.959686,7.623994 494.249542,9.332091 
	C416.587067,86.900856 338.968170,164.513260 261.410858,242.187164 
	C259.235199,244.366104 257.783966,247.268402 255.552399,249.896576 
	C253.522278,250.042389 251.934708,250.125015 249.554199,250.248932 
	C249.554199,255.305313 249.554199,260.145477 249.215576,264.983765 
	C247.973969,264.984802 247.070984,264.987732 245.998718,264.655334 
	C244.807556,259.481232 242.362640,255.517029 238.033813,253.093903 
	C235.542313,251.699234 232.688110,250.952515 230.023193,249.559906 
	C231.572495,247.097565 232.840836,244.734802 234.655716,242.917984 
	C313.275665,164.212967 391.948792,85.561081 470.575226,6.862526 
	C472.289093,5.147089 473.535522,2.964609 475.000000,1.000002 
z"/>
<path fill="#6A15E4" opacity="1.000000" stroke="none" 
	d="
M1.000000,301.468536 
	C2.610772,299.889191 4.439839,298.996796 5.801202,297.636414 
	C103.069557,200.436493 200.302551,103.201195 297.514465,5.944836 
	C298.782745,4.675940 299.744293,3.100452 300.924500,1.334033 
	C307.687653,1.000000 314.375275,1.000000 321.531464,1.000001 
	C320.888397,2.611482 319.995270,4.441281 318.634094,5.803353 
	C214.435516,110.069893 110.201843,214.301376 5.947181,318.511810 
	C4.677509,319.780975 3.101187,320.743317 1.334006,321.924438 
	C1.000000,315.312347 1.000000,308.624725 1.000000,301.468536 
z"/>
<path fill="#A733CB" opacity="1.000000" stroke="none" 
	d="
M474.531372,1.000002 
	C473.535522,2.964609 472.289093,5.147089 470.575226,6.862526 
	C391.948792,85.561081 313.275665,164.212967 234.655716,242.917984 
	C232.840836,244.734802 231.572495,247.097565 229.556473,249.602478 
	C221.488846,249.999283 213.913956,249.999283 205.812424,249.999283 
	C205.812424,257.100311 205.812424,263.544800 205.491745,270.076233 
	C202.835022,271.438507 200.498978,272.713806 198.068253,273.623901 
	C196.282883,268.182953 194.592209,263.107208 193.241791,257.953705 
	C195.022766,256.782562 196.615097,255.840881 197.882553,254.574158 
	C280.826874,171.677811 363.748474,88.758728 446.634033,5.803635 
	C447.995148,4.441356 448.888397,2.611604 450.000000,0.999997 
	C458.020905,1.000000 466.041809,1.000000 474.531372,1.000002 
z"/>
<path fill="#5D14CB" opacity="1.000000" stroke="none" 
	d="
M277.531372,1.000001 
	C276.887512,2.612342 275.993378,4.442824 274.631378,5.805863 
	C185.101257,95.404976 95.535385,184.968353 5.948352,274.510559 
	C4.678205,275.780060 3.101602,276.742950 1.334017,277.924469 
	C1.000000,269.979095 1.000000,261.958191 1.359637,253.444733 
	C3.363970,251.916718 5.274435,251.147278 6.615385,249.807724 
	C87.774185,168.733627 168.892563,87.619049 249.950623,6.444241 
	C251.365479,5.027323 252.000885,2.832067 253.000000,0.999999 
	C261.020905,1.000000 269.041809,1.000000 277.531372,1.000001 
z"/>
<path fill="#5713BE" opacity="1.000000" stroke="none" 
	d="
M252.531372,0.999999 
	C252.000885,2.832067 251.365479,5.027323 249.950623,6.444241 
	C168.892563,87.619049 87.774185,168.733627 6.615385,249.807724 
	C5.274435,251.147278 3.363970,251.916718 1.359637,252.976105 
	C1.000000,245.645752 1.000000,238.291504 1.334002,230.393066 
	C3.100226,228.744217 4.675332,227.782532 5.944223,226.514450 
	C79.077797,153.426727 152.194199,80.321823 225.244400,7.150826 
	C226.894440,5.498072 227.765549,3.067662 229.000000,0.999999 
	C236.687576,1.000000 244.375168,1.000000 252.531372,0.999999 
z"/>
<path fill="#5012B1" opacity="1.000000" stroke="none" 
	d="
M228.531372,0.999999 
	C227.765549,3.067662 226.894440,5.498072 225.244400,7.150826 
	C152.194199,80.321823 79.077797,153.426727 5.944223,226.514450 
	C4.675332,227.782532 3.100226,228.744217 1.334002,229.924438 
	C1.000000,221.979095 1.000000,213.958191 1.333990,205.393036 
	C3.100112,203.744202 4.675025,202.782486 5.943915,201.514526 
	C71.200996,136.303909 136.436584,71.071808 201.634598,5.802141 
	C202.995239,4.440008 203.888641,2.611138 205.000000,1.000003 
	C212.687576,1.000000 220.375168,1.000000 228.531372,0.999999 
z"/>
<path fill="#D64BAC" opacity="1.000000" stroke="none" 
	d="
M87.000000,501.000000 
	C78.979095,501.000000 70.958199,501.000000 62.492744,500.640381 
	C63.554077,498.165497 64.794670,495.785248 66.604218,493.973206 
	C131.535645,428.950226 196.525330,363.985443 261.469421,298.975128 
	C263.190918,297.251862 264.496948,295.113525 266.444275,293.103699 
	C271.361176,292.798828 276.839600,294.646332 277.927338,287.473877 
	C278.019745,286.864594 279.662811,286.167053 280.636597,286.079559 
	C282.943451,285.872284 285.307617,286.230347 287.600708,285.957367 
	C292.279846,285.400299 294.862762,287.088562 294.570770,292.080841 
	C293.056976,293.046997 291.738342,293.801056 290.701599,294.837158 
	C223.786072,361.710907 156.885742,428.599854 90.050957,495.554260 
	C88.635750,496.971985 87.999588,499.167389 87.000000,501.000000 
z"/>
<path fill="#8822DF" opacity="1.000000" stroke="none" 
	d="
M130.993256,249.831787 
	C132.766434,247.283539 134.202179,244.398361 136.361588,242.235748 
	C214.573929,163.907364 292.856812,85.649391 371.103485,7.355262 
	C372.841766,5.615936 374.273865,3.570583 375.924377,1.333989 
	C382.687653,1.000000 389.375275,1.000000 396.455963,1.334017 
	C395.272583,3.572083 393.839020,5.618870 392.099274,7.359668 
	C313.320984,86.185364 234.509186,164.977600 155.748352,243.820694 
	C153.548859,246.022461 151.860519,248.734802 149.506042,251.139252 
	C143.049911,250.656891 137.021576,250.244339 130.993256,249.831787 
z"/>
<path fill="#FD5F92" opacity="1.000000" stroke="none" 
	d="
M501.000000,173.539368 
	C498.696167,175.470520 496.030029,176.578049 494.140839,178.463943 
	C422.829224,249.651642 351.589081,320.910950 280.339325,392.160614 
	C246.068802,426.431152 211.791626,460.695007 177.548691,494.993103 
	C175.927124,496.617279 174.609940,498.545410 173.075500,500.665985 
	C167.311966,501.000000 161.623917,501.000000 155.545578,500.659088 
	C156.134918,498.785858 156.875244,497.014404 158.130844,495.757812 
	C172.433029,481.444519 186.842270,467.238281 201.166962,452.947357 
	C222.536392,431.628296 243.859787,410.263062 265.205048,388.919769 
	C281.155151,372.971191 297.128021,357.045319 313.053925,341.072632 
	C322.655792,331.442535 332.102936,321.656769 341.779663,312.103149 
	C348.377014,305.589752 355.251099,299.356659 362.464966,292.998871 
	C366.675812,292.999512 370.423126,292.999512 374.365936,292.999512 
	C374.585846,289.555878 374.763214,286.778412 375.304352,283.977539 
	C377.079315,283.166962 378.751007,282.644257 379.860809,281.551117 
	C389.447571,272.107971 398.985901,262.613586 408.385834,252.985260 
	C409.639435,251.701218 410.038940,249.583374 410.852417,247.876785 
	C410.870819,247.901932 410.815491,247.879425 411.188477,247.884888 
	C415.876007,244.257004 420.315887,240.757721 424.431244,236.911240 
	C425.719543,235.707123 426.133514,233.567520 426.934937,231.655106 
	C426.922180,231.454071 426.859222,231.056168 427.245636,231.039337 
	C429.857422,229.745575 432.485016,228.874725 434.246674,227.129684 
	C454.725677,206.843765 475.057281,186.409164 495.489258,166.075562 
	C497.091400,164.481140 499.152313,163.347672 501.000000,161.999985 
	C501.000000,165.692902 501.000000,169.385818 501.000000,173.539368 
z"/>
<path fill="#4911A3" opacity="1.000000" stroke="none" 
	d="
M204.531357,1.000003 
	C203.888641,2.611138 202.995239,4.440008 201.634598,5.802141 
	C136.436584,71.071808 71.200996,136.303909 5.943915,201.514526 
	C4.675025,202.782486 3.100112,203.744202 1.333990,204.924408 
	C1.000000,196.645767 1.000000,188.291534 1.334046,179.393219 
	C3.101294,177.743546 4.677193,176.780807 5.947184,175.511887 
	C62.536018,118.970451 119.103188,62.407330 175.631668,5.805587 
	C176.993271,4.442228 177.887695,2.612312 179.000000,1.000003 
	C187.354233,1.000000 195.708466,1.000000 204.531357,1.000003 
z"/>
<path fill="#BD3EBC" opacity="1.000000" stroke="none" 
	d="
M255.994934,249.833405 
	C257.783966,247.268402 259.235199,244.366104 261.410858,242.187164 
	C338.968170,164.513260 416.587067,86.900856 494.249542,9.332091 
	C495.959686,7.623994 498.275391,6.522176 500.654297,5.068770 
	C501.000000,11.021152 501.000000,17.042303 500.665955,23.607218 
	C498.546173,25.609058 496.617584,26.924261 494.995087,28.545729 
	C419.956238,103.537354 344.953094,178.564743 269.877075,253.519119 
	C267.986542,255.406616 265.326996,256.523865 262.942719,257.565277 
	C262.859314,254.910690 262.859314,252.691162 262.859314,250.290268 
	C260.134979,250.108948 258.064972,249.971176 255.994934,249.833405 
z"/>
<path fill="#9E2ED1" opacity="1.000000" stroke="none" 
	d="
M449.532043,0.999997 
	C448.888397,2.611604 447.995148,4.441356 446.634033,5.803635 
	C363.748474,88.758728 280.826874,171.677811 197.882553,254.574158 
	C196.615097,255.840881 195.022766,256.782562 192.926300,257.756165 
	C191.257492,254.531601 191.903137,250.305908 187.023315,249.482849 
	C188.588089,247.034302 189.881638,244.690674 191.699554,242.870865 
	C270.306824,164.181915 348.965363,85.544189 427.577423,6.860009 
	C429.290527,5.145359 430.536255,2.963761 432.000000,0.999999 
	C437.688049,1.000000 443.376068,1.000000 449.532043,0.999997 
z"/>
<path fill="#F83A75" opacity="1.000000" stroke="none" 
	d="
M501.000000,306.000000 
	C501.000000,313.354248 501.000000,320.708496 500.665955,328.606873 
	C498.898682,330.256592 497.322723,331.219360 496.052673,332.488312 
	C441.463837,387.029449 386.896790,441.592377 332.368713,496.194214 
	C331.007080,497.557709 330.112457,499.387634 329.000000,501.000000 
	C321.645752,501.000000 314.291504,501.000000 306.492676,500.640381 
	C307.082306,498.637207 307.850708,496.728271 309.188843,495.388245 
	C371.263672,433.225769 433.379852,371.104553 495.559021,309.046387 
	C496.975342,307.632843 499.168945,306.998047 501.000000,306.000000 
z"/>
<path fill="#E050A5" opacity="1.000000" stroke="none" 
	d="
M87.468407,501.000000 
	C87.999588,499.167389 88.635750,496.971985 90.050957,495.554260 
	C156.885742,428.599854 223.786072,361.710907 290.701599,294.837158 
	C291.738342,293.801056 293.056976,293.046997 294.854279,292.403015 
	C299.668121,292.644745 303.871704,292.644745 308.220184,292.644745 
	C306.822876,287.937256 305.495514,283.465424 304.496399,278.908569 
	C306.521698,278.214508 308.218811,277.605499 309.992859,277.457520 
	C310.378693,282.989197 310.687622,288.059814 310.977386,293.483704 
	C309.545349,295.817993 308.379974,298.046234 306.683929,299.744476 
	C241.613968,364.898621 176.489670,429.998535 111.414711,495.147736 
	C109.704376,496.859985 108.461075,499.038757 106.999985,501.000000 
	C100.645599,501.000000 94.291206,501.000000 87.468407,501.000000 
z"/>
<path fill="#A833CA" opacity="1.000000" stroke="none" 
	d="
M0.999993,475.000000 
	C1.000000,466.979095 1.000000,458.958191 1.334067,450.393280 
	C3.099272,448.745850 4.673022,447.785187 5.940985,446.518433 
	C55.497715,397.010132 105.031952,347.479279 154.531052,297.913391 
	C155.898468,296.544128 156.849243,294.758850 158.455032,293.096924 
	C163.044952,293.026276 167.174149,293.026276 171.972275,293.026276 
	C171.229813,285.000519 176.636749,285.753479 181.734482,285.996460 
	C182.891571,286.051605 184.063171,286.103668 185.211197,285.988586 
	C188.212311,285.687775 189.938385,286.759430 189.482300,290.023193 
	C187.151047,291.471680 184.924881,292.648071 183.222000,294.348511 
	C124.415375,353.070343 65.664551,411.848022 6.862486,470.574402 
	C5.146544,472.288116 2.964640,473.535278 0.999993,475.000000 
z"/>
<path fill="#CC45B3" opacity="1.000000" stroke="none" 
	d="
M265.996704,293.168762 
	C264.496948,295.113525 263.190918,297.251862 261.469421,298.975128 
	C196.525330,363.985443 131.535645,428.950226 66.604218,493.973206 
	C64.794670,495.785248 63.554077,498.165497 62.024097,500.640381 
	C55.312355,501.000000 48.624710,501.000000 41.544094,500.666016 
	C42.138611,499.017029 42.983109,497.559174 44.133995,496.407501 
	C110.791824,429.703827 177.466675,363.017151 244.208069,296.397186 
	C245.744217,294.863831 248.059555,294.111084 250.474792,292.995911 
	C254.781113,292.997559 258.624084,292.997559 263.025696,292.997559 
	C263.025696,286.426636 263.025696,280.713623 263.360779,274.922577 
	C266.491821,273.237640 269.287750,271.630737 272.050659,270.404999 
	C269.714447,277.103027 267.333649,283.393829 265.192993,289.765320 
	C264.877655,290.703857 265.700500,292.024780 265.996704,293.168762 
z"/>
<path fill="#F45B98" opacity="1.000000" stroke="none" 
	d="
M362.001434,292.998230 
	C355.251099,299.356659 348.377014,305.589752 341.779663,312.103149 
	C332.102936,321.656769 322.655792,331.442535 313.053925,341.072632 
	C297.128021,357.045319 281.155151,372.971191 265.205048,388.919769 
	C243.859787,410.263062 222.536392,431.628296 201.166962,452.947357 
	C186.842270,467.238281 172.433029,481.444519 158.130844,495.757812 
	C156.875244,497.014404 156.134918,498.785858 155.077637,500.659088 
	C149.311966,501.000000 143.623917,501.000000 137.492004,500.640381 
	C138.553940,498.165436 139.794388,495.785065 141.603897,493.972961 
	C206.535721,428.949768 271.525818,363.984741 336.470306,298.974152 
	C338.191956,297.250732 339.498627,295.112732 341.438232,293.105103 
	C344.064392,292.943298 346.251129,292.844391 348.553314,292.740265 
	C348.726227,289.112122 348.871857,286.056610 349.375977,282.976501 
	C351.687408,281.603424 353.629272,280.238464 355.596466,278.911133 
	C357.554352,277.590088 359.537628,276.306732 361.600037,275.465881 
	C361.794006,281.615997 361.897705,287.307098 362.001434,292.998230 
z"/>
<path fill="#421195" opacity="1.000000" stroke="none" 
	d="
M178.531372,1.000003 
	C177.887695,2.612312 176.993271,4.442228 175.631668,5.805587 
	C119.103188,62.407330 62.536018,118.970451 5.947184,175.511887 
	C4.677193,176.780807 3.101294,177.743546 1.334046,178.924561 
	C1.000000,171.312424 1.000000,163.624832 1.334038,155.393158 
	C3.098649,153.746155 4.671771,152.785950 5.939227,151.519760 
	C54.534134,102.973389 103.107140,54.405090 151.640213,5.796927 
	C152.998795,4.436231 153.890564,2.609450 155.000000,1.000002 
	C162.687576,1.000000 170.375168,1.000000 178.531372,1.000003 
z"/>
<path fill="#F94079" opacity="1.000000" stroke="none" 
	d="
M501.000000,305.531708 
	C499.168945,306.998047 496.975342,307.632843 495.559021,309.046387 
	C433.379852,371.104553 371.263672,433.225769 309.188843,495.388245 
	C307.850708,496.728271 307.082306,498.637207 306.024048,500.640381 
	C299.978851,501.000000 293.957703,501.000000 287.492371,500.640381 
	C288.084442,498.635162 288.854767,496.723969 290.195038,495.382019 
	C358.599579,426.890930 427.045166,358.440765 495.552643,290.052643 
	C496.970886,288.636871 499.166870,288.000153 501.000000,287.000000 
	C501.000000,293.021149 501.000000,299.042297 501.000000,305.531708 
z"/>
<path fill="#B238C4" opacity="1.000000" stroke="none" 
	d="
M0.999993,475.468262 
	C2.964640,473.535278 5.146544,472.288116 6.862486,470.574402 
	C65.664551,411.848022 124.415375,353.070343 183.222000,294.348511 
	C184.924881,292.648071 187.151047,291.471680 189.662140,290.373779 
	C191.649612,291.464813 193.038223,292.642944 194.582886,292.906555 
	C196.998779,293.318848 199.520279,293.112366 201.970764,293.517090 
	C200.995483,295.377869 200.291977,297.134735 199.062225,298.365997 
	C134.902588,362.605438 70.706383,426.808411 6.446772,490.947815 
	C5.028567,492.363342 2.832968,493.000031 1.000006,494.000000 
	C1.000000,487.978851 1.000000,481.957703 0.999993,475.468262 
z"/>
<path fill="#F73471" opacity="1.000000" stroke="none" 
	d="
M329.468628,501.000000 
	C330.112457,499.387634 331.007080,497.557709 332.368713,496.194214 
	C386.896790,441.592377 441.463837,387.029449 496.052673,332.488312 
	C497.322723,331.219360 498.898682,330.256592 500.665955,329.075500 
	C501.000000,336.687592 501.000000,344.375153 500.665955,352.606873 
	C498.901398,354.253876 497.328400,355.214142 496.060944,356.480255 
	C449.465820,403.026489 402.892731,449.594757 356.359924,496.203247 
	C355.001404,497.563995 354.109467,499.390594 353.000000,501.000000 
	C345.312408,501.000000 337.624847,501.000000 329.468628,501.000000 
z"/>
<path fill="#FA477E" opacity="1.000000" stroke="none" 
	d="
M259.466858,501.000000 
	C261.113220,498.058136 262.877991,494.768982 265.402039,492.236633 
	C274.616119,482.992188 284.193756,474.110535 293.424438,464.882172 
	C302.655060,455.653748 311.527191,446.066864 320.753479,436.833984 
	C330.097717,427.483032 339.760925,418.451294 349.136261,409.130646 
	C355.578735,402.725677 361.685394,395.983734 368.093781,389.543335 
	C374.739532,382.864319 381.620880,376.420319 388.301422,369.775208 
	C394.742004,363.368774 401.042450,356.821686 407.432526,350.364166 
	C413.947113,343.780762 420.489929,337.225250 427.031250,330.668396 
	C433.910156,323.773224 440.776764,316.865509 447.695099,310.010071 
	C454.506256,303.260864 461.415619,296.610474 468.207764,289.842346 
	C474.642609,283.430237 480.876953,276.813965 487.400177,270.494629 
	C491.510681,266.512604 495.990204,262.911438 500.652100,259.069702 
	C501.000000,264.022095 501.000000,269.044189 500.640381,274.557251 
	C498.635162,276.084412 496.723938,276.854675 495.382050,278.194977 
	C422.891113,350.599976 350.440948,423.045807 278.052216,495.552948 
	C276.636505,496.971008 276.000061,499.166992 275.000000,501.000000 
	C269.977905,501.000000 264.955811,501.000000 259.466858,501.000000 
z"/>
<path fill="#8F26DB" opacity="1.000000" stroke="none" 
	d="
M149.933838,251.209061 
	C151.860519,248.734802 153.548859,246.022461 155.748352,243.820694 
	C234.509186,164.977600 313.320984,86.185364 392.099274,7.359668 
	C393.839020,5.618870 395.272583,3.572083 396.924500,1.334017 
	C401.356903,1.000000 405.713806,1.000000 410.459808,1.334013 
	C409.272125,3.572494 407.838196,5.619752 406.098022,7.360920 
	C324.713959,88.792114 243.301392,170.194778 161.908356,251.616989 
	C160.151001,253.374954 158.582993,255.322205 156.623810,257.017792 
	C154.191925,254.972641 152.062866,253.090851 149.933838,251.209061 
z"/>
<path fill="#3B1089" opacity="1.000000" stroke="none" 
	d="
M154.531372,1.000002 
	C153.890564,2.609450 152.998795,4.436231 151.640213,5.796927 
	C103.107140,54.405090 54.534134,102.973389 5.939227,151.519760 
	C4.671771,152.785950 3.098649,153.746155 1.334038,154.924530 
	C1.000000,147.312424 1.000000,139.624832 1.359619,131.444641 
	C3.362102,129.918274 5.269217,129.149384 6.609440,127.812302 
	C47.109795,87.406250 87.566940,46.956818 127.954811,6.438376 
	C129.367096,5.021526 130.002502,2.830302 131.000000,1.000000 
	C138.687576,1.000000 146.375168,1.000000 154.531372,1.000002 
z"/>
<path fill="#F62E6C" opacity="1.000000" stroke="none" 
	d="
M353.468628,501.000000 
	C354.109467,499.390594 355.001404,497.563995 356.359924,496.203247 
	C402.892731,449.594757 449.465820,403.026489 496.060944,356.480255 
	C497.328400,355.214142 498.901398,354.253876 500.665955,353.075500 
	C501.000000,361.020905 501.000000,369.041809 500.640381,377.555420 
	C498.637177,379.082367 496.729431,379.851776 495.388489,381.189392 
	C457.222168,419.260223 419.099426,457.374756 381.047119,495.559448 
	C379.634277,496.977203 378.998138,499.168976 378.000000,501.000000 
	C369.979095,501.000000 361.958191,501.000000 353.468628,501.000000 
z"/>
<path fill="#C442B8" opacity="1.000000" stroke="none" 
	d="
M250.011444,292.994232 
	C248.059555,294.111084 245.744217,294.863831 244.208069,296.397186 
	C177.466675,363.017151 110.791824,429.703827 44.133995,496.407501 
	C42.983109,497.559174 42.138611,499.017029 41.075562,500.666016 
	C36.643101,501.000000 32.286201,501.000000 27.533566,500.654327 
	C28.874908,497.922821 30.329861,495.255310 32.389980,493.192047 
	C97.100426,428.381775 161.875748,363.636292 226.597717,298.837524 
	C228.308258,297.124939 229.536499,294.930634 231.216431,292.675293 
	C240.804520,290.304871 245.800644,284.465759 245.992950,275.364746 
	C246.066010,271.907013 246.110474,268.448700 246.167984,264.990631 
	C247.070984,264.987732 247.973969,264.984802 249.308334,265.445404 
	C249.830276,274.937378 249.920868,283.965790 250.011444,292.994232 
z"/>
<path fill="#9D2DD1" opacity="1.000000" stroke="none" 
	d="
M157.994308,293.167542 
	C156.849243,294.758850 155.898468,296.544128 154.531052,297.913391 
	C105.031952,347.479279 55.497715,397.010132 5.940985,446.518433 
	C4.673022,447.785187 3.099272,448.745850 1.334067,449.924622 
	C1.000000,442.645752 1.000000,435.291504 1.359636,427.444702 
	C3.718588,425.562378 5.981818,424.437103 7.678638,422.744141 
	C50.853661,379.667145 93.971970,336.533264 137.083817,293.392975 
	C138.489182,291.986694 139.722809,290.408783 141.357513,289.111603 
	C142.487457,292.354187 144.434814,293.297760 147.537216,293.073456 
	C151.002518,292.822876 154.506927,293.112823 157.994308,293.167542 
z"/>
<path fill="#ED579D" opacity="1.000000" stroke="none" 
	d="
M340.998810,293.168030 
	C339.498627,295.112732 338.191956,297.250732 336.470306,298.974152 
	C271.525818,363.984741 206.535721,428.949768 141.603897,493.972961 
	C139.794388,495.785065 138.553940,498.165436 137.024063,500.640381 
	C132.310745,501.000000 127.621490,501.000000 122.484207,500.637939 
	C123.424980,498.283112 124.550652,496.027557 126.240517,494.335480 
	C194.001495,426.485535 261.811768,358.684875 329.631134,290.893280 
	C331.034302,289.490692 332.618256,288.268951 334.428589,287.095062 
	C336.825836,289.207550 338.912323,291.187775 340.998810,293.168030 
z"/>
<path fill="#B93CBF" opacity="1.000000" stroke="none" 
	d="
M1.000006,494.497925 
	C2.832968,493.000031 5.028567,492.363342 6.446772,490.947815 
	C70.706383,426.808411 134.902588,362.605438 199.062225,298.365997 
	C200.291977,297.134735 200.995483,295.377869 202.318619,293.435516 
	C202.850433,291.669586 203.008133,290.334320 203.496735,288.999207 
	C204.489426,288.998322 205.151215,288.997284 205.881882,289.425476 
	C206.908005,290.901459 207.750580,292.683105 208.844528,292.853760 
	C211.838776,293.320984 214.938828,293.110016 217.913513,293.489563 
	C216.346832,295.580841 214.988266,297.474701 213.362488,299.101532 
	C148.053970,364.452240 82.715538,429.773071 17.423054,495.139771 
	C15.710004,496.854767 14.463869,499.036133 12.999992,501.000000 
	C9.107204,501.000000 5.214408,501.000000 1.000000,501.000000 
	C1.000000,499.008789 1.000000,497.002289 1.000006,494.497925 
z"/>
<path fill="#350F7C" opacity="1.000000" stroke="none" 
	d="
M130.531342,1.000000 
	C130.002502,2.830302 129.367096,5.021526 127.954811,6.438376 
	C87.566940,46.956818 47.109795,87.406250 6.609440,127.812302 
	C5.269217,129.149384 3.362102,129.918274 1.359619,130.976013 
	C1.000000,122.979103 1.000000,114.958199 1.334049,106.393219 
	C3.099204,104.745735 4.672250,103.784500 5.940680,102.518150 
	C38.203247,70.308228 70.443069,38.075474 102.638374,5.798351 
	C103.996941,4.436325 104.890045,2.610014 106.000000,0.999999 
	C114.020897,1.000000 122.041801,1.000000 130.531342,1.000000 
z"/>
<path fill="#E754A1" opacity="1.000000" stroke="none" 
	d="
M334.117859,286.962830 
	C332.618256,288.268951 331.034302,289.490692 329.631134,290.893280 
	C261.811768,358.684875 194.001495,426.485535 126.240517,494.335480 
	C124.550652,496.027557 123.424980,498.283112 122.018089,500.637939 
	C117.309677,501.000000 112.619354,501.000000 107.464508,501.000000 
	C108.461075,499.038757 109.704376,496.859985 111.414711,495.147736 
	C176.489670,429.998535 241.613968,364.898621 306.683929,299.744476 
	C308.379974,298.046234 309.545349,295.817993 311.436310,293.434052 
	C315.153625,293.031158 318.392822,293.031158 322.068176,293.031158 
	C322.068176,285.784058 322.068176,279.272675 322.068176,272.761322 
	C322.398163,272.629486 322.728149,272.497681 323.058136,272.365845 
	C326.744720,277.231506 330.431274,282.097168 334.117859,286.962830 
z"/>
<path fill="#C441B8" opacity="1.000000" stroke="none" 
	d="
M272.083679,270.023865 
	C269.287750,271.630737 266.491821,273.237640 263.277832,274.461090 
	C262.915192,268.718536 262.970673,263.359436 263.026123,258.000336 
	C265.326996,256.523865 267.986542,255.406616 269.877075,253.519119 
	C344.953094,178.564743 419.956238,103.537354 494.995087,28.545729 
	C496.617584,26.924261 498.546173,25.609058 500.665955,24.075489 
	C501.000000,27.692909 501.000000,31.385818 500.640381,35.563435 
	C498.283722,37.435593 496.023285,38.558941 494.328369,40.249313 
	C456.739044,77.737328 419.222778,115.298607 381.639282,152.792450 
	C379.924194,154.503418 377.709900,155.713989 375.505463,157.417511 
	C374.466034,160.117310 373.649292,162.557236 372.510895,165.081573 
	C362.724030,174.423264 353.239746,183.661316 343.837860,192.982483 
	C343.231079,193.584061 343.259796,194.826645 342.624451,195.866730 
	C340.452759,196.642334 338.649506,197.322250 336.547607,198.130096 
	C333.509583,201.328400 330.900787,204.528214 328.008026,207.446579 
	C315.866577,219.695389 303.598785,231.819229 291.496613,244.106445 
	C289.968292,245.658112 289.146637,247.905807 287.563843,249.894379 
	C281.075836,248.782303 278.338928,251.610840 277.000916,257.369354 
	C275.987061,261.732788 273.766998,265.815979 272.083679,270.023865 
z"/>
<path fill="#982BD5" opacity="1.000000" stroke="none" 
	d="
M431.541931,0.999999 
	C430.536255,2.963761 429.290527,5.145359 427.577423,6.860009 
	C348.965363,85.544189 270.306824,164.181915 191.699554,242.870865 
	C189.881638,244.690674 188.588089,247.034302 186.569336,249.548492 
	C182.724380,249.932053 179.360016,249.900711 176.022858,249.517944 
	C177.581512,247.062897 178.863571,244.710083 180.680313,242.891418 
	C259.292816,164.195694 337.957458,85.552063 416.575500,6.861875 
	C418.289215,5.146568 419.535614,2.964391 421.000000,1.000002 
	C424.361298,1.000000 427.722565,1.000000 431.541931,0.999999 
z"/>
<path fill="#BF3FBB" opacity="1.000000" stroke="none" 
	d="
M13.464643,501.000000 
	C14.463869,499.036133 15.710004,496.854767 17.423054,495.139771 
	C82.715538,429.773071 148.053970,364.452240 213.362488,299.101532 
	C214.988266,297.474701 216.346832,295.580841 218.372650,293.423218 
	C222.940079,293.010254 226.964859,292.985626 230.989655,292.960968 
	C229.536499,294.930634 228.308258,297.124939 226.597717,298.837524 
	C161.875748,363.636292 97.100426,428.381775 32.389980,493.192047 
	C30.329861,495.255310 28.874908,497.922821 27.068914,500.654327 
	C22.643101,501.000000 18.286201,501.000000 13.464643,501.000000 
z"/>
<path fill="#FA447C" opacity="1.000000" stroke="none" 
	d="
M275.460632,501.000000 
	C276.000061,499.166992 276.636505,496.971008 278.052216,495.552948 
	C350.440948,423.045807 422.891113,350.599976 495.382050,278.194977 
	C496.723938,276.854675 498.635162,276.084412 500.640381,275.024109 
	C501.000000,278.692902 501.000000,282.385834 501.000000,286.539368 
	C499.166870,288.000153 496.970886,288.636871 495.552643,290.052643 
	C427.045166,358.440765 358.599579,426.890930 290.195038,495.382019 
	C288.854767,496.723969 288.084442,498.635162 287.024109,500.640381 
	C283.307098,501.000000 279.614166,501.000000 275.460632,501.000000 
z"/>
<path fill="#9429D7" opacity="1.000000" stroke="none" 
	d="
M420.545898,1.000002 
	C419.535614,2.964391 418.289215,5.146568 416.575500,6.861875 
	C337.957458,85.552063 259.292816,164.195694 180.680313,242.891418 
	C178.863571,244.710083 177.581512,247.062897 175.748596,249.726929 
	C174.669540,251.872879 173.891922,253.458420 172.771683,255.105865 
	C170.058395,257.173096 167.762833,259.277130 165.295029,261.154846 
	C163.008362,262.894775 160.537537,264.392670 158.101715,265.583160 
	C157.679321,262.506531 157.303009,259.843842 156.926666,257.181152 
	C158.582993,255.322205 160.151001,253.374954 161.908356,251.616989 
	C243.301392,170.194778 324.713959,88.792114 406.098022,7.360920 
	C407.838196,5.619752 409.272125,3.572494 410.924438,1.334013 
	C414.030609,1.000000 417.061188,1.000000 420.545898,1.000002 
z"/>
<path fill="#F42867" opacity="1.000000" stroke="none" 
	d="
M378.468567,501.000000 
	C378.998138,499.168976 379.634277,496.977203 381.047119,495.559448 
	C419.099426,457.374756 457.222168,419.260223 495.388489,381.189392 
	C496.729431,379.851776 498.637177,379.082367 500.640381,378.024048 
	C501.000000,385.020966 501.000000,392.041901 500.665985,399.606964 
	C498.902374,401.252960 497.330933,402.212769 496.063965,403.477539 
	C465.131378,434.356964 434.221649,465.259430 403.356995,496.206726 
	C402.000122,497.567230 401.108398,499.391663 400.000000,501.000000 
	C392.979034,501.000000 385.958099,501.000000 378.468567,501.000000 
z"/>
<path fill="#8722E0" opacity="1.000000" stroke="none" 
	d="
M1.000003,375.468536 
	C2.845772,373.654266 4.907588,372.525055 6.505532,370.930878 
	C41.498753,336.021088 76.426178,301.045288 111.430084,266.146210 
	C113.384323,264.197845 115.888817,262.801392 118.543655,261.529419 
	C118.577049,268.938660 118.204002,275.966492 117.481918,283.022369 
	C115.149673,284.472534 112.924362,285.651886 111.218994,287.352570 
	C76.291634,322.184753 41.433495,357.086304 6.511978,391.924316 
	C4.911839,393.520630 2.847915,394.652069 0.999999,396.000000 
	C1.000000,389.312347 1.000000,382.624725 1.000003,375.468536 
z"/>
<path fill="#2D0E6E" opacity="1.000000" stroke="none" 
	d="
M105.531349,0.999999 
	C104.890045,2.610014 103.996941,4.436325 102.638374,5.798351 
	C70.443069,38.075474 38.203247,70.308228 5.940680,102.518150 
	C4.672250,103.784500 3.099204,104.745735 1.334049,105.924576 
	C1.000000,97.645767 1.000000,89.291534 1.359632,80.444740 
	C3.364925,78.915680 5.272450,78.142265 6.617314,76.803581 
	C30.118748,53.410160 53.573025,29.969118 76.945160,6.446632 
	C78.358788,5.023908 78.999596,2.833304 80.000000,1.000000 
	C88.354233,1.000000 96.708466,1.000000 105.531349,0.999999 
z"/>
<path fill="#9529D7" opacity="1.000000" stroke="none" 
	d="
M141.036484,288.910889 
	C139.722809,290.408783 138.489182,291.986694 137.083817,293.392975 
	C93.971970,336.533264 50.853661,379.667145 7.678638,422.744141 
	C5.981818,424.437103 3.718588,425.562378 1.359636,426.976074 
	C1.000000,421.977905 1.000000,416.955811 1.359624,411.442810 
	C3.364977,409.915497 5.274680,409.143768 6.617904,407.804047 
	C43.075687,371.442841 79.488792,335.036804 115.835655,298.564819 
	C117.260025,297.135559 117.958473,294.982849 119.453842,293.098083 
	C123.499329,293.028900 127.086143,293.028900 131.138687,293.028900 
	C131.138687,288.317688 131.138687,284.255371 131.138687,280.319946 
	C138.972000,278.565704 138.687027,285.161652 141.036484,288.910889 
z"/>
<path fill="#E9559F" opacity="1.000000" stroke="none" 
	d="
M501.000000,110.000000 
	C501.000000,115.022095 501.000000,120.044182 500.640381,125.557175 
	C498.400452,127.318871 496.258362,128.326782 494.678864,129.899643 
	C468.602386,155.866043 442.590393,181.897232 416.587616,207.937546 
	C414.617249,209.910751 412.825043,212.061874 410.575989,214.127838 
	C407.732849,222.338623 403.710388,229.035172 394.284943,230.501816 
	C394.071655,230.535019 393.925568,231.000076 393.735931,231.281799 
	C394.508545,231.824142 395.274048,232.361496 395.960815,233.239532 
	C392.956787,236.851852 389.867188,239.995239 387.173340,243.447449 
	C385.757782,245.261536 385.034698,247.616043 383.535217,249.796844 
	C375.712738,249.819794 368.354004,249.772400 361.003479,249.365326 
	C363.261597,242.675293 367.698364,238.499969 373.952271,236.260849 
	C374.574585,236.975677 375.076080,237.425842 375.449829,237.761353 
	C376.096191,235.642151 376.651367,233.821991 377.552643,231.973663 
	C379.168549,231.224930 380.667908,230.737244 381.672180,229.747284 
	C390.438446,221.105988 399.143829,212.402084 407.782257,203.632996 
	C408.769379,202.630951 409.234253,201.114426 410.138245,199.567841 
	C411.534973,198.908508 412.734802,198.517776 413.969635,197.759369 
	C416.912903,193.654236 419.524658,189.631149 422.791931,186.239532 
	C429.317719,179.465500 436.281799,173.116165 442.917053,166.444473 
	C449.315125,160.011215 455.458374,153.324982 461.836395,146.871216 
	C472.157562,136.427429 482.511200,126.013359 493.011230,115.750549 
	C495.331299,113.482895 498.319458,111.898834 501.000000,110.000000 
z"/>
<path fill="#D84CAB" opacity="1.000000" stroke="none" 
	d="
M501.000000,69.999992 
	C501.000000,76.354401 501.000000,82.708794 500.640381,89.555611 
	C498.281647,91.437630 496.018555,92.562782 494.322479,94.255928 
	C461.546387,126.974892 428.836700,159.760345 395.832336,192.365631 
	C391.993713,189.478439 388.436066,186.757690 385.171478,183.865173 
	C387.048096,182.223907 388.681030,180.803818 390.207977,179.277695 
	C425.299316,144.205185 460.369263,109.111290 495.492737,74.071037 
	C497.091309,72.476273 499.153656,71.346390 501.000000,69.999992 
z"/>
<path fill="#E151A5" opacity="1.000000" stroke="none" 
	d="
M396.113312,192.532089 
	C428.836700,159.760345 461.546387,126.974892 494.322479,94.255928 
	C496.018555,92.562782 498.281647,91.437630 500.640381,90.024017 
	C501.000000,96.354401 501.000000,102.708794 501.000000,109.531601 
	C498.319458,111.898834 495.331299,113.482895 493.011230,115.750549 
	C482.511200,126.013359 472.157562,136.427429 461.836395,146.871216 
	C455.458374,153.324982 449.315125,160.011215 442.917053,166.444473 
	C436.281799,173.116165 429.317719,179.465500 422.791931,186.239532 
	C419.524658,189.631149 416.912903,193.654236 413.626770,197.582657 
	C407.537048,196.026443 401.825165,194.279266 396.113312,192.532089 
z"/>
<path fill="#8F26DB" opacity="1.000000" stroke="none" 
	d="
M118.995178,293.167236 
	C117.958473,294.982849 117.260025,297.135559 115.835655,298.564819 
	C79.488792,335.036804 43.075687,371.442841 6.617904,407.804047 
	C5.274680,409.143768 3.364977,409.915497 1.359624,410.975952 
	C1.000000,406.310760 1.000000,401.621490 0.999999,396.466125 
	C2.847915,394.652069 4.911839,393.520630 6.511978,391.924316 
	C41.433495,357.086304 76.291634,322.184753 111.218994,287.352570 
	C112.924362,285.651886 115.149673,284.472534 117.552094,283.466553 
	C118.312599,286.977509 118.653893,290.072388 118.995178,293.167236 
z"/>
<path fill="#D148AF" opacity="1.000000" stroke="none" 
	d="
M501.000000,69.535339 
	C499.153656,71.346390 497.091309,72.476273 495.492737,74.071037 
	C460.369263,109.111290 425.299316,144.205185 390.207977,179.277695 
	C388.681030,180.803818 387.048096,182.223907 384.876160,183.693695 
	C382.806671,180.478058 381.325592,177.262131 380.140686,173.875702 
	C382.023224,172.238251 383.661194,170.822952 385.188263,169.296707 
	C421.349121,133.155411 457.477905,96.981918 493.702454,60.904594 
	C495.741089,58.874245 498.549744,57.617054 501.000000,56.000000 
	C501.000000,60.356899 501.000000,64.713799 501.000000,69.535339 
z"/>
<path fill="#260D60" opacity="1.000000" stroke="none" 
	d="
M79.531364,1.000000 
	C78.999596,2.833304 78.358788,5.023908 76.945160,6.446632 
	C53.573025,29.969118 30.118748,53.410160 6.617314,76.803581 
	C5.272450,78.142265 3.364925,78.915680 1.359632,79.976089 
	C1.000000,72.312424 1.000000,64.624847 1.334051,56.393219 
	C2.741543,55.101963 3.955321,54.495609 4.867577,53.586639 
	C21.063538,37.449043 37.237728,21.289459 53.357738,5.076077 
	C54.474907,3.952439 55.130016,2.369401 56.000000,1.000000 
	C63.687576,1.000000 71.375153,1.000000 79.531364,1.000000 
z"/>
<path fill="#F32364" opacity="1.000000" stroke="none" 
	d="
M400.467590,501.000000 
	C401.108398,499.391663 402.000122,497.567230 403.356995,496.206726 
	C434.221649,465.259430 465.131378,434.356964 496.063965,403.477539 
	C497.330933,402.212769 498.902374,401.252960 500.665985,400.075531 
	C501.000000,405.354919 501.000000,410.709869 500.665985,416.607910 
	C499.021088,418.134399 497.568695,418.975983 496.420166,420.122101 
	C470.916321,445.571625 445.435455,471.044220 420.001282,496.563263 
	C418.763275,497.805359 417.989807,499.510498 417.000000,501.000000 
	C411.645081,501.000000 406.290131,501.000000 400.467590,501.000000 
z"/>
<path fill="#CB45B3" opacity="1.000000" stroke="none" 
	d="
M501.000000,55.539368 
	C498.549744,57.617054 495.741089,58.874245 493.702454,60.904594 
	C457.477905,96.981918 421.349121,133.155411 385.188263,169.296707 
	C383.661194,170.822952 382.023224,172.238251 379.844482,173.650070 
	C378.557709,170.395599 377.863342,167.196274 377.518005,163.970673 
	C379.849548,162.524719 382.075195,161.348816 383.778778,159.649551 
	C421.040497,122.481712 458.234985,85.246452 495.490845,48.072708 
	C497.089844,46.477222 499.153046,45.346962 501.000000,43.999992 
	C501.000000,47.692909 501.000000,51.385818 501.000000,55.539368 
z"/>
<path fill="#EF589C" opacity="1.000000" stroke="none" 
	d="
M410.949982,214.130280 
	C412.825043,212.061874 414.617249,209.910751 416.587616,207.937546 
	C442.590393,181.897232 468.602386,155.866043 494.678864,129.899643 
	C496.258362,128.326782 498.400452,127.318871 500.640381,126.024033 
	C501.000000,130.024551 501.000000,134.049088 500.665955,138.612335 
	C498.665344,140.490021 496.857849,141.687759 495.353149,143.188965 
	C470.025299,168.457947 444.749573,193.779144 419.402527,219.028793 
	C417.807251,220.617950 415.720367,221.713577 413.598633,222.801727 
	C412.540009,219.753189 411.744995,216.941742 410.949982,214.130280 
z"/>
<path fill="#F31F61" opacity="1.000000" stroke="none" 
	d="
M417.466125,501.000000 
	C417.989807,499.510498 418.763275,497.805359 420.001282,496.563263 
	C445.435455,471.044220 470.916321,445.571625 496.420166,420.122101 
	C497.568695,418.975983 499.021088,418.134399 500.665985,417.075500 
	C501.000000,421.689240 501.000000,426.378510 500.666016,431.609375 
	C499.136475,433.019409 497.799835,433.746368 496.766296,434.777191 
	C476.031708,455.456146 455.320221,476.158325 434.657318,496.908813 
	C433.534454,498.036438 432.875122,499.625671 432.000000,501.000000 
	C427.310760,501.000000 422.621490,501.000000 417.466125,501.000000 
z"/>
<path fill="#F55B98" opacity="1.000000" stroke="none" 
	d="
M413.862183,223.038803 
	C415.720367,221.713577 417.807251,220.617950 419.402527,219.028793 
	C444.749573,193.779144 470.025299,168.457947 495.353149,143.188965 
	C496.857849,141.687759 498.665344,140.490021 500.665955,139.075531 
	C501.000000,143.356903 501.000000,147.713806 500.666016,152.610870 
	C499.022003,154.133484 497.570618,154.974258 496.422821,156.119308 
	C473.284302,179.202026 450.170227,202.309341 427.098663,225.458923 
	C425.853699,226.708099 425.024200,228.371353 423.639343,229.882935 
	C419.860596,228.009583 415.167725,227.840179 413.862183,223.038803 
z"/>
<path fill="#F21B5E" opacity="1.000000" stroke="none" 
	d="
M432.468292,501.000000 
	C432.875122,499.625671 433.534454,498.036438 434.657318,496.908813 
	C455.320221,476.158325 476.031708,455.456146 496.766296,434.777191 
	C497.799835,433.746368 499.136475,433.019409 500.666016,432.075500 
	C501.000000,438.021149 501.000000,444.042297 500.666016,450.607239 
	C499.372131,451.786469 498.272644,452.281799 497.473083,453.078217 
	C482.720093,467.773407 467.988251,482.489960 453.310364,497.260132 
	C452.304413,498.272400 451.759369,499.742706 451.000000,501.000000 
	C444.978851,501.000000 438.957703,501.000000 432.468292,501.000000 
z"/>
<path fill="#C743B6" opacity="1.000000" stroke="none" 
	d="
M501.000000,43.555824 
	C499.153046,45.346962 497.089844,46.477222 495.490845,48.072708 
	C458.234985,85.246452 421.040497,122.481712 383.778778,159.649551 
	C382.075195,161.348816 379.849548,162.524719 377.333191,163.621399 
	C376.442261,161.251495 376.085205,159.204575 375.728149,157.157639 
	C377.709900,155.713989 379.924194,154.503418 381.639282,152.792450 
	C419.222778,115.298607 456.739044,77.737328 494.328369,40.249313 
	C496.023285,38.558941 498.283722,37.435593 500.640381,36.024071 
	C501.000000,38.370556 501.000000,40.741116 501.000000,43.555824 
z"/>
<path fill="#200C53" opacity="1.000000" stroke="none" 
	d="
M55.531364,1.000000 
	C55.130016,2.369401 54.474907,3.952439 53.357738,5.076077 
	C37.237728,21.289459 21.063538,37.449043 4.867577,53.586639 
	C3.955321,54.495609 2.741543,55.101963 1.334051,55.924583 
	C1.000000,48.645748 1.000000,41.291500 1.333991,33.393028 
	C2.118137,32.647873 2.674850,32.554703 3.002928,32.230305 
	C12.156350,23.179564 21.322836,14.141162 30.366188,4.981286 
	C31.298496,4.036963 31.473564,2.345032 32.000000,1.000000 
	C39.687576,1.000000 47.375153,1.000000 55.531364,1.000000 
z"/>
<path fill="#F1155A" opacity="1.000000" stroke="none" 
	d="
M451.468567,501.000000 
	C451.759369,499.742706 452.304413,498.272400 453.310364,497.260132 
	C467.988251,482.489960 482.720093,467.773407 497.473083,453.078217 
	C498.272644,452.281799 499.372131,451.786469 500.666016,451.075500 
	C501.000000,458.020966 501.000000,465.041901 500.666016,472.606934 
	C499.374786,473.783813 498.281342,474.278992 497.481598,475.070862 
	C490.048218,482.430969 482.636963,489.814148 475.301392,497.271423 
	C474.302795,498.286591 473.755981,499.746155 473.000000,501.000000 
	C465.979034,501.000000 458.958099,501.000000 451.468567,501.000000 
z"/>
<path fill="#FB5E94" opacity="1.000000" stroke="none" 
	d="
M424.001343,229.841858 
	C425.024200,228.371353 425.853699,226.708099 427.098663,225.458923 
	C450.170227,202.309341 473.284302,179.202026 496.422821,156.119308 
	C497.570618,154.974258 499.022003,154.133484 500.666016,153.075500 
	C501.000000,155.700012 501.000000,158.400024 501.000000,161.550003 
	C499.152313,163.347672 497.091400,164.481140 495.489258,166.075562 
	C475.057281,186.409164 454.725677,206.843765 434.246674,227.129684 
	C432.485016,228.874725 429.857422,229.745575 426.926331,231.015808 
	C425.480865,230.620041 424.741119,230.230957 424.001343,229.841858 
z"/>
<path fill="#190C47" opacity="1.000000" stroke="none" 
	d="
M31.531342,1.000000 
	C31.473564,2.345032 31.298496,4.036963 30.366188,4.981286 
	C21.322836,14.141162 12.156350,23.179564 3.002928,32.230305 
	C2.674850,32.554703 2.118137,32.647873 1.333991,32.924404 
	C1.000000,22.407970 1.000000,11.815940 1.000000,1.000000 
	C11.019785,1.000000 21.041235,1.000000 31.531342,1.000000 
z"/>
<path fill="#F01055" opacity="1.000000" stroke="none" 
	d="
M473.468658,501.000000 
	C473.755981,499.746155 474.302795,498.286591 475.301392,497.271423 
	C482.636963,489.814148 490.048218,482.430969 497.481598,475.070862 
	C498.281342,474.278992 499.374786,473.783813 500.666016,473.075500 
	C501.000000,482.259796 501.000000,491.519562 501.000000,501.000000 
	C491.980316,501.000000 482.958801,501.000000 473.468658,501.000000 
z"/>
<path fill="#FFFEFF" opacity="1.000000" stroke="none" 
	d="
M119.453842,293.098083 
	C118.653893,290.072388 118.312599,286.977509 117.901131,283.438477 
	C118.204002,275.966492 118.577049,268.938660 118.875359,261.451172 
	C118.800613,257.530518 118.800613,254.069534 118.800613,249.962875 
	C122.876015,249.962875 126.475990,249.962875 130.534607,249.897339 
	C137.021576,250.244339 143.049911,250.656891 149.506027,251.139252 
	C152.062866,253.090851 154.191925,254.972641 156.623825,257.017792 
	C157.303009,259.843842 157.679321,262.506531 157.922073,265.901367 
	C155.524750,270.224274 153.261002,273.815002 150.510742,278.177429 
	C153.035904,281.971344 156.273499,286.835663 159.859268,292.223083 
	C161.040176,289.086090 162.106659,286.395844 163.069687,283.669098 
	C166.437164,274.134186 169.768936,264.586670 173.114288,255.043945 
	C173.891922,253.458420 174.669540,251.872879 175.721405,250.078354 
	C179.360016,249.900711 182.724380,249.932053 186.542725,249.897736 
	C191.903137,250.305908 191.257492,254.531601 192.586029,257.833923 
	C194.592209,263.107208 196.282883,268.182953 198.102844,273.990662 
	C199.876694,279.481476 201.521271,284.240265 203.165833,288.999084 
	C203.008133,290.334320 202.850433,291.669586 202.344894,293.086426 
	C199.520279,293.112366 196.998779,293.318848 194.582886,292.906555 
	C193.038223,292.642944 191.649612,291.464813 190.011200,290.346039 
	C189.938385,286.759430 188.212311,285.687775 185.211197,285.988586 
	C184.063171,286.103668 182.891571,286.051605 181.734482,285.996460 
	C176.636749,285.753479 171.229813,285.000519 171.972275,293.026276 
	C167.174149,293.026276 163.044952,293.026276 158.455032,293.096924 
	C154.506927,293.112823 151.002518,292.822876 147.537216,293.073456 
	C144.434814,293.297760 142.487457,292.354187 141.357513,289.111603 
	C138.687027,285.161652 138.972000,278.565704 131.138687,280.319946 
	C131.138687,284.255371 131.138687,288.317688 131.138687,293.028900 
	C127.086143,293.028900 123.499329,293.028900 119.453842,293.098083 
M139.012878,270.040283 
	C142.787750,269.459167 144.983322,267.123322 143.648651,263.556519 
	C141.206757,257.030853 135.606308,261.111847 131.343613,259.911438 
	C131.343613,263.651611 131.343613,266.709656 131.343613,270.051941 
	C133.833435,270.051941 135.979858,270.051941 139.012878,270.040283 
M177.985321,272.483856 
	C177.764999,273.838135 177.544693,275.192413 177.232208,277.113373 
	C180.341492,276.919769 182.830170,276.764771 185.990433,276.567993 
	C184.351181,271.673523 182.977310,267.571472 181.277359,262.495758 
	C179.965195,266.262421 179.019653,268.976654 177.985321,272.483856 
z"/>
<path fill="#FFFEFF" opacity="1.000000" stroke="none" 
	d="
M231.216431,292.675293 
	C226.964859,292.985626 222.940079,293.010254 218.456146,293.101257 
	C214.938828,293.110016 211.838776,293.320984 208.844528,292.853760 
	C207.750580,292.683105 206.908005,290.901459 205.948181,288.961670 
	C205.901215,282.042145 205.856827,276.015747 205.812424,269.989319 
	C205.812424,263.544800 205.812424,257.100311 205.812424,249.999283 
	C213.913956,249.999283 221.488846,249.999283 229.530457,249.956711 
	C232.688110,250.952515 235.542313,251.699234 238.033813,253.093903 
	C242.362640,255.517029 244.807556,259.481232 245.998718,264.655334 
	C246.110474,268.448700 246.066010,271.907013 245.992950,275.364746 
	C245.800644,284.465759 240.804520,290.304871 231.216431,292.675293 
M226.083237,282.910645 
	C234.023224,279.525177 233.951385,274.207184 232.482254,266.289490 
	C231.412430,260.523804 226.832230,259.071564 218.001129,260.652435 
	C218.001129,266.343414 217.992783,272.120911 218.003357,277.898346 
	C218.015060,284.302765 219.103638,285.066498 226.083237,282.910645 
z"/>
<path fill="#FFFFFF" opacity="1.000000" stroke="none" 
	d="
M262.942719,257.565277 
	C262.970673,263.359436 262.915192,268.718536 262.942719,274.539124 
	C263.025696,280.713623 263.025696,286.426636 263.025696,292.997559 
	C258.624084,292.997559 254.781113,292.997559 250.474792,292.995911 
	C249.920868,283.965790 249.830276,274.937378 249.646942,265.447296 
	C249.554199,260.145477 249.554199,255.305313 249.554199,250.248932 
	C251.934708,250.125015 253.522278,250.042389 255.552383,249.896576 
	C258.064972,249.971176 260.134979,250.108948 262.859314,250.290268 
	C262.859314,252.691162 262.859314,254.910690 262.942719,257.565277 
z"/>
<path fill="#B03AC7" opacity="1.000000" stroke="none" 
	d="
M205.491745,270.076233 
	C205.856827,276.015747 205.901215,282.042145 205.879318,288.532410 
	C205.151215,288.997284 204.489426,288.998322 203.496735,288.999207 
	C201.521271,284.240265 199.876694,279.481476 198.197525,274.355896 
	C200.498978,272.713806 202.835022,271.438507 205.491745,270.076233 
z"/>
<path fill="#FFFEFE" opacity="1.000000" stroke="none" 
	d="
M272.050659,270.404999 
	C273.766998,265.815979 275.987061,261.732788 277.000916,257.369354 
	C278.338928,251.610840 281.075836,248.782303 287.982147,249.959167 
	C290.526520,249.985657 292.218872,250.010712 294.071350,250.371246 
	C295.544159,254.470657 296.856750,258.234589 298.237061,262.361450 
	C300.259216,268.147430 302.213684,273.570526 304.168182,278.993591 
	C305.495514,283.465424 306.822876,287.937256 308.220184,292.644745 
	C303.871704,292.644745 299.668121,292.644745 295.181000,292.322571 
	C294.862762,287.088562 292.279846,285.400299 287.600708,285.957367 
	C285.307617,286.230347 282.943451,285.872284 280.636597,286.079559 
	C279.662811,286.167053 278.019745,286.864594 277.927338,287.473877 
	C276.839600,294.646332 271.361176,292.798828 266.444275,293.103699 
	C265.700500,292.024780 264.877655,290.703857 265.192993,289.765320 
	C267.333649,283.393829 269.714447,277.103027 272.050659,270.404999 
M288.064331,269.568298 
	C287.337158,267.604248 286.609955,265.640228 285.379181,262.316040 
	C283.756134,267.742523 282.533630,271.829926 281.151123,276.452209 
	C284.271698,276.452209 286.837585,276.452209 289.840637,276.452209 
	C289.175995,273.998077 288.679077,272.163147 288.064331,269.568298 
z"/>
<path fill="#FFFFFF" opacity="1.000000" stroke="none" 
	d="
M360.995239,249.725006 
	C368.354004,249.772400 375.712738,249.819794 383.866943,250.082214 
	C384.662354,253.380035 384.662354,256.462830 384.662354,260.108704 
	C381.315063,260.108704 378.253265,260.108704 374.937347,260.108704 
	C374.937347,265.454376 374.937347,270.228577 374.847839,275.445740 
	C374.819092,278.592804 374.879852,281.296875 374.940552,284.000946 
	C374.763214,286.778412 374.585846,289.555878 374.365936,292.999512 
	C370.423126,292.999512 366.675812,292.999512 362.464966,292.998871 
	C361.897705,287.307098 361.794006,281.615997 361.688141,275.006500 
	C361.686005,269.543030 361.686005,264.997894 361.686005,260.646729 
	C357.417908,260.023865 353.767029,259.491089 350.070679,258.507751 
	C350.025238,255.485764 350.025238,252.914307 350.025238,249.725006 
	C354.128357,249.725006 357.561798,249.725006 360.995239,249.725006 
z"/>
<path fill="#FB5E94" opacity="1.000000" stroke="none" 
	d="
M375.304382,283.977539 
	C374.879852,281.296875 374.819092,278.592804 375.186737,275.372437 
	C377.170898,273.643188 378.864960,272.570404 380.259338,271.194000 
	C387.844666,263.706360 395.315125,256.102020 402.928040,248.642883 
	C404.422638,247.178467 406.369476,246.175552 408.382690,245.121490 
	C409.383118,246.139328 410.108551,246.995483 410.833984,247.851639 
	C410.038940,249.583374 409.639435,251.701218 408.385834,252.985260 
	C398.985901,262.613586 389.447571,272.107971 379.860809,281.551117 
	C378.751007,282.644257 377.079315,283.166962 375.304382,283.977539 
z"/>
<path fill="#FFFCFD" opacity="1.000000" stroke="none" 
	d="
M410.852417,247.876785 
	C410.108551,246.995483 409.383118,246.139328 408.352295,244.733276 
	C406.805878,237.047241 403.999847,234.410126 396.039581,232.898865 
	C395.274048,232.361496 394.508545,231.824142 393.735931,231.281799 
	C393.925568,231.000076 394.071655,230.535019 394.284943,230.501816 
	C403.710388,229.035172 407.732849,222.338623 410.575989,214.127838 
	C411.744995,216.941742 412.540009,219.753189 413.598633,222.801727 
	C415.167725,227.840179 419.860596,228.009583 423.639343,229.882935 
	C424.741119,230.230957 425.480865,230.620041 426.539917,231.032654 
	C426.859222,231.056168 426.922180,231.454071 426.539398,231.700287 
	C415.885803,233.650040 411.983154,237.703278 410.815491,247.879425 
	C410.815491,247.879425 410.870819,247.901932 410.852417,247.876785 
z"/>
<path fill="#FB5E94" opacity="1.000000" stroke="none" 
	d="
M411.188477,247.884888 
	C411.983154,237.703278 415.885803,233.650040 426.552155,231.901306 
	C426.133514,233.567520 425.719543,235.707123 424.431244,236.911240 
	C420.315887,240.757721 415.876007,244.257004 411.188477,247.884888 
z"/>
<path fill="#FFFEFF" opacity="1.000000" stroke="none" 
	d="
M334.428589,287.095062 
	C330.431274,282.097168 326.744720,277.231506 323.058136,272.365845 
	C322.728149,272.497681 322.398163,272.629486 322.068176,272.761322 
	C322.068176,279.272675 322.068176,285.784058 322.068176,293.031158 
	C318.392822,293.031158 315.153625,293.031158 311.455475,293.080811 
	C310.687622,288.059814 310.378693,282.989197 310.066437,276.994141 
	C310.014130,268.712891 309.965179,261.356110 309.992493,253.592316 
	C310.141235,247.447235 314.779907,251.142807 317.377380,249.897888 
	C323.353333,249.761185 323.602295,255.690781 327.165588,258.306458 
	C329.806885,261.814636 332.277435,265.030579 334.748016,268.246521 
	C335.198608,267.980682 335.649200,267.714874 336.099792,267.449036 
	C336.099792,261.651337 336.099792,255.853638 336.065979,250.043854 
	C336.032135,250.031769 336.056305,250.099442 336.505737,250.063477 
	C339.971405,249.963623 342.987579,249.899765 346.403168,249.911804 
	C351.010223,252.140274 347.615967,256.159027 348.931152,259.463257 
	C348.903839,267.617371 348.960663,275.309235 349.017456,283.001099 
	C348.871857,286.056610 348.726227,289.112122 348.553314,292.740265 
	C346.251129,292.844391 344.064392,292.943298 341.438232,293.105103 
	C338.912323,291.187775 336.825836,289.207550 334.428589,287.095062 
z"/>
<path fill="#D54BAC" opacity="1.000000" stroke="none" 
	d="
M309.916199,253.999344 
	C309.965179,261.356110 310.014130,268.712891 309.989502,276.533081 
	C308.218811,277.605499 306.521698,278.214508 304.496399,278.908569 
	C302.213684,273.570526 300.259216,268.147430 298.585541,262.334656 
	C300.370300,261.003448 301.935791,260.146057 303.363983,259.101044 
	C305.596893,257.467224 307.736877,255.706375 309.916199,253.999344 
z"/>
<path fill="#EC569E" opacity="1.000000" stroke="none" 
	d="
M349.375977,282.976501 
	C348.960663,275.309235 348.903839,267.617371 349.206360,259.452606 
	C349.749176,258.972565 349.932648,258.965424 350.116150,258.958313 
	C353.767029,259.491089 357.417908,260.023865 361.686005,260.646729 
	C361.686005,264.997894 361.686005,269.543030 361.597900,274.547516 
	C359.537628,276.306732 357.554352,277.590088 355.596466,278.911133 
	C353.629272,280.238464 351.687408,281.603424 349.375977,282.976501 
z"/>
<path fill="#FFFEFE" opacity="1.000000" stroke="none" 
	d="
M375.505463,157.417511 
	C376.085205,159.204575 376.442261,161.251495 376.984131,163.647690 
	C377.863342,167.196274 378.557709,170.395599 379.548279,173.820557 
	C381.325592,177.262131 382.806671,180.478058 384.583069,183.865463 
	C388.436066,186.757690 391.993713,189.478439 395.832336,192.365631 
	C401.825165,194.279266 407.537048,196.026443 413.591736,197.950333 
	C412.734802,198.517776 411.534973,198.908508 409.734680,199.615753 
	C407.879456,200.270355 406.643982,200.740479 405.367096,200.926682 
	C387.194641,203.576706 379.379883,215.276611 377.206543,232.001816 
	C376.651367,233.821991 376.096191,235.642151 375.449829,237.761353 
	C375.076080,237.425842 374.574585,236.975677 374.013672,235.858276 
	C373.030792,231.432098 372.107330,227.673157 371.162079,223.538574 
	C370.106567,220.750595 369.072845,218.338257 367.991882,215.577393 
	C364.663727,212.136230 361.382904,209.043549 357.916779,205.639801 
	C353.160828,203.868439 348.590149,202.408173 343.793884,200.650604 
	C341.327637,199.569595 339.086914,198.785873 336.846222,198.002167 
	C338.649506,197.322250 340.452759,196.642334 343.010132,195.887405 
	C344.873444,195.540955 345.978424,195.250900 347.092438,195.000916 
	C362.135925,191.625259 372.568176,179.468185 372.832520,164.997162 
	C373.649292,162.557236 374.466034,160.117310 375.505463,157.417511 
z"/>
<path fill="#C843B5" opacity="1.000000" stroke="none" 
	d="
M336.547607,198.130096 
	C339.086914,198.785873 341.327637,199.569595 343.716888,200.988083 
	C343.238983,202.582840 342.756653,203.686371 341.964691,204.481552 
	C327.567383,218.937561 313.162201,233.386169 298.651520,247.727936 
	C297.467621,248.898071 295.509552,249.284927 293.911194,250.035767 
	C292.218872,250.010712 290.526520,249.985657 288.415894,249.895813 
	C289.146637,247.905807 289.968292,245.658112 291.496613,244.106445 
	C303.598785,231.819229 315.866577,219.695389 328.008026,207.446579 
	C330.900787,204.528214 333.509583,201.328400 336.547607,198.130096 
z"/>
<path fill="#C945B5" opacity="1.000000" stroke="none" 
	d="
M372.510864,165.081573 
	C372.568176,179.468185 362.135925,191.625259 347.092438,195.000916 
	C345.978424,195.250900 344.873444,195.540955 343.378571,195.791718 
	C343.259796,194.826645 343.231079,193.584061 343.837860,192.982483 
	C353.239746,183.661316 362.724030,174.423264 372.510864,165.081573 
z"/>
<path fill="#9B2ED4" opacity="1.000000" stroke="none" 
	d="
M172.771683,255.105865 
	C169.768936,264.586670 166.437164,274.134186 163.069687,283.669098 
	C162.106659,286.395844 161.040176,289.086090 159.859268,292.223083 
	C156.273499,286.835663 153.035904,281.971344 150.510742,278.177429 
	C153.261002,273.815002 155.524750,270.224274 157.968140,266.315308 
	C160.537537,264.392670 163.008362,262.894775 165.295029,261.154846 
	C167.762833,259.277130 170.058395,257.173096 172.771683,255.105865 
z"/>
<path fill="#F45B98" opacity="1.000000" stroke="none" 
	d="
M395.960815,233.239532 
	C403.999847,234.410126 406.805878,237.047241 408.077332,244.571579 
	C406.369476,246.175552 404.422638,247.178467 402.928040,248.642883 
	C395.315125,256.102020 387.844666,263.706360 380.259338,271.194000 
	C378.864960,272.570404 377.170898,273.643188 375.276245,274.929443 
	C374.937347,270.228577 374.937347,265.454376 374.937347,260.108704 
	C378.253265,260.108704 381.315063,260.108704 384.662354,260.108704 
	C384.662354,256.462830 384.662354,253.380035 384.330627,250.011871 
	C385.034698,247.616043 385.757782,245.261536 387.173340,243.447449 
	C389.867188,239.995239 392.956787,236.851852 395.960815,233.239532 
z"/>
<path fill="#E453A4" opacity="1.000000" stroke="none" 
	d="
M377.552612,231.973663 
	C379.379883,215.276611 387.194641,203.576706 405.367096,200.926682 
	C406.643982,200.740479 407.879456,200.270355 409.537720,199.884369 
	C409.234253,201.114426 408.769379,202.630951 407.782257,203.632996 
	C399.143829,212.402084 390.438446,221.105988 381.672180,229.747284 
	C380.667908,230.737244 379.168549,231.224930 377.552612,231.973663 
z"/>
<path fill="#E050A6" opacity="1.000000" stroke="none" 
	d="
M371.183868,223.914215 
	C372.107330,227.673157 373.030792,231.432098 373.892822,235.593628 
	C367.698364,238.499969 363.261597,242.675293 361.003479,249.365326 
	C357.561798,249.725006 354.128357,249.725006 350.025238,249.725006 
	C350.025238,252.914307 350.025238,255.485764 350.070679,258.507751 
	C349.932648,258.965424 349.749176,258.972565 349.290466,258.990356 
	C347.615967,256.159027 351.010223,252.140274 346.478271,249.578033 
	C354.497284,240.750290 362.840576,232.332245 371.183868,223.914215 
z"/>
<path fill="#8D25DC" opacity="1.000000" stroke="none" 
	d="
M138.569580,270.046112 
	C135.979858,270.051941 133.833435,270.051941 131.343613,270.051941 
	C131.343613,266.709656 131.343613,263.651611 131.343613,259.911438 
	C135.606308,261.111847 141.206757,257.030853 143.648651,263.556519 
	C144.983322,267.123322 142.787750,269.459167 138.569580,270.046112 
z"/>
<path fill="#A537CF" opacity="1.000000" stroke="none" 
	d="
M178.029724,272.087372 
	C179.019653,268.976654 179.965195,266.262421 181.277359,262.495758 
	C182.977310,267.571472 184.351181,271.673523 185.990433,276.567993 
	C182.830170,276.764771 180.341492,276.919769 177.232208,277.113373 
	C177.544693,275.192413 177.764999,273.838135 178.029724,272.087372 
z"/>
<path fill="#B53AC2" opacity="1.000000" stroke="none" 
	d="
M225.692993,282.983704 
	C219.103638,285.066498 218.015060,284.302765 218.003357,277.898346 
	C217.992783,272.120911 218.001129,266.343414 218.001129,260.652435 
	C226.832230,259.071564 231.412430,260.523804 232.482254,266.289490 
	C233.951385,274.207184 234.023224,279.525177 225.692993,282.983704 
z"/>
<path fill="#CE46B2" opacity="1.000000" stroke="none" 
	d="
M294.071350,250.371246 
	C295.509552,249.284927 297.467621,248.898071 298.651520,247.727936 
	C313.162201,233.386169 327.567383,218.937561 341.964691,204.481552 
	C342.756653,203.686371 343.238983,202.582840 343.942444,201.285370 
	C348.590149,202.408173 353.160828,203.868439 357.626038,205.815186 
	C344.845062,218.882858 332.118042,231.413177 319.567291,244.117661 
	C318.191498,245.510315 317.828339,247.903427 316.995514,249.832504 
	C314.779907,251.142807 310.141235,247.447235 309.992523,253.592316 
	C307.736877,255.706375 305.596893,257.467224 303.363983,259.101044 
	C301.935791,260.146057 300.370300,261.003448 298.517883,261.971741 
	C296.856750,258.234589 295.544159,254.470657 294.071350,250.371246 
z"/>
<path fill="#D04CB2" opacity="1.000000" stroke="none" 
	d="
M288.123230,269.948242 
	C288.679077,272.163147 289.175995,273.998077 289.840637,276.452209 
	C286.837585,276.452209 284.271698,276.452209 281.151123,276.452209 
	C282.533630,271.829926 283.756134,267.742523 285.379181,262.316040 
	C286.609955,265.640228 287.337158,267.604248 288.123230,269.948242 
z"/>
<path fill="#D74BAC" opacity="1.000000" stroke="none" 
	d="
M317.377380,249.897888 
	C317.828339,247.903427 318.191498,245.510315 319.567291,244.117661 
	C332.118042,231.413177 344.845062,218.882858 357.811340,206.126266 
	C361.382904,209.043549 364.663727,212.136230 367.815674,215.865540 
	C358.333649,225.958923 348.945587,235.381592 339.663879,244.907867 
	C338.213257,246.396683 337.246674,248.357086 336.056305,250.099426 
	C336.056305,250.099442 336.032135,250.031769 335.722504,250.103302 
	C332.606873,252.787949 329.800842,255.401077 326.994843,258.014221 
	C323.602295,255.690781 323.353333,249.761185 317.377380,249.897888 
z"/>
<path fill="#DF51A7" opacity="1.000000" stroke="none" 
	d="
M336.505737,250.063461 
	C337.246674,248.357086 338.213257,246.396683 339.663879,244.907867 
	C348.945587,235.381592 358.333649,225.958923 367.862946,216.214035 
	C369.072845,218.338257 370.106567,220.750595 371.162079,223.538574 
	C362.840576,232.332245 354.497284,240.750290 346.078857,249.502106 
	C342.987579,249.899765 339.971405,249.963623 336.505737,250.063461 
z"/>
<path fill="#DF51A7" opacity="1.000000" stroke="none" 
	d="
M327.165588,258.306458 
	C329.800842,255.401077 332.606873,252.787949 335.756348,250.115387 
	C336.099792,255.853638 336.099792,261.651337 336.099792,267.449036 
	C335.649200,267.714874 335.198608,267.980682 334.748016,268.246521 
	C332.277435,265.030579 329.806885,261.814636 327.165588,258.306458 
z"/>
</svg>